<svg width="344" height="235" viewBox="0 0 344 235" fill="none" xmlns="http://www.w3.org/2000/svg">
<path fill-rule="evenodd" clip-rule="evenodd" d="M24.4633 155.487L73.3125 191.942L41.9642 209.445V234.235L114.876 193.039L64.9311 156.945L121.125 125.761V189.558L141.782 177.771L141.904 88.8168L24.4633 155.487Z" fill="white"/>
<path fill-rule="evenodd" clip-rule="evenodd" d="M300.912 0L227.998 41.198L277.948 77.29L221.751 108.474L221.595 24.5278L200.938 36.3168L200.97 145.421L318.413 78.7451L269.564 42.2933L300.912 24.7924V0Z" fill="white"/>
<path fill-rule="evenodd" clip-rule="evenodd" d="M168.841 73.4234V196.197L148.062 207.984V85.4505L168.841 73.4234Z" fill="white"/>
<path fill-rule="evenodd" clip-rule="evenodd" d="M0 137.639L19.8106 151.364L221.729 36.7547L222.012 11.7295L0 137.639Z" fill="white"/>
<path fill-rule="evenodd" clip-rule="evenodd" d="M151.561 181.031L166.89 197.217L343.177 96.3574L323.996 82.5815L151.561 181.031Z" fill="white"/>
</svg>
